<svg width="180" height="58" viewBox="0 0 180 58" fill="none" xmlns="http://www.w3.org/2000/svg">
<path d="M46.938 16.264V17.062C46.042 17.258 45.076 17.65 44.04 18.238C43.032 18.826 41.968 19.778 40.848 21.094L32.952 30.502L35.388 27.016L45.384 42.598C45.776 43.242 46.196 43.76 46.644 44.152C47.092 44.544 47.68 44.88 48.408 45.16V46C47.428 45.944 46.336 45.916 45.132 45.916C43.928 45.888 42.836 45.874 41.856 45.874C41.268 45.874 40.554 45.888 39.714 45.916C38.874 45.916 37.81 45.944 36.522 46V45.16C37.67 45.104 38.356 44.95 38.58 44.698C38.832 44.418 38.734 43.942 38.286 43.27L32.196 33.4C31.804 32.756 31.454 32.28 31.146 31.972C30.838 31.636 30.53 31.412 30.222 31.3C29.914 31.16 29.508 31.076 29.004 31.048V30.166C30.236 30.138 31.328 29.802 32.28 29.158C33.26 28.514 34.324 27.534 35.472 26.218L37.95 23.236C39.014 21.976 39.63 20.898 39.798 20.002C39.994 19.078 39.812 18.364 39.252 17.86C38.72 17.356 37.894 17.09 36.774 17.062V16.264C37.474 16.292 38.132 16.32 38.748 16.348C39.392 16.348 40.05 16.362 40.722 16.39C41.422 16.39 42.178 16.39 42.99 16.39C43.802 16.39 44.53 16.376 45.174 16.348C45.846 16.32 46.434 16.292 46.938 16.264ZM32.406 16.264V17.104C31.51 17.132 30.824 17.244 30.348 17.44C29.9 17.608 29.606 17.944 29.466 18.448C29.326 18.924 29.256 19.68 29.256 20.716V41.548C29.256 42.556 29.326 43.312 29.466 43.816C29.634 44.32 29.942 44.656 30.39 44.824C30.838 44.992 31.51 45.104 32.406 45.16V46C31.65 45.944 30.698 45.916 29.55 45.916C28.402 45.888 27.24 45.874 26.064 45.874C24.72 45.874 23.446 45.888 22.242 45.916C21.066 45.916 20.128 45.944 19.428 46V45.16C20.324 45.104 20.996 44.992 21.444 44.824C21.892 44.656 22.186 44.32 22.326 43.816C22.494 43.312 22.578 42.556 22.578 41.548V20.716C22.578 19.68 22.494 18.924 22.326 18.448C22.186 17.944 21.878 17.608 21.402 17.44C20.954 17.244 20.296 17.132 19.428 17.104V16.264C20.128 16.292 21.066 16.32 22.242 16.348C23.446 16.376 24.72 16.39 26.064 16.39C27.24 16.39 28.402 16.376 29.55 16.348C30.698 16.32 31.65 16.292 32.406 16.264ZM59.1292 23.698C61.5932 23.698 63.5252 24.426 64.9252 25.882C66.3252 27.338 67.0252 29.718 67.0252 33.022H53.2072L53.1232 32.224H61.7332C61.7612 30.852 61.6772 29.592 61.4812 28.444C61.2852 27.268 60.9772 26.33 60.5572 25.63C60.1372 24.93 59.5772 24.58 58.8772 24.58C57.8972 24.58 57.0572 25.196 56.3572 26.428C55.6852 27.66 55.2792 29.704 55.1392 32.56L55.2652 32.812C55.2372 33.148 55.2092 33.498 55.1812 33.862C55.1812 34.226 55.1812 34.604 55.1812 34.996C55.1812 36.928 55.4472 38.496 55.9792 39.7C56.5392 40.904 57.2392 41.786 58.0792 42.346C58.9192 42.878 59.7732 43.144 60.6412 43.144C61.2292 43.144 61.8312 43.06 62.4472 42.892C63.0912 42.696 63.7352 42.36 64.3792 41.884C65.0232 41.38 65.6252 40.68 66.1852 39.784L66.9412 40.036C66.6052 41.1 66.0732 42.136 65.3452 43.144C64.6172 44.152 63.6932 44.978 62.5732 45.622C61.4532 46.266 60.1092 46.588 58.5412 46.588C56.6372 46.588 54.9572 46.182 53.5012 45.37C52.0452 44.558 50.8972 43.326 50.0572 41.674C49.2452 40.022 48.8392 37.922 48.8392 35.374C48.8392 32.77 49.2732 30.6 50.1412 28.864C51.0372 27.128 52.2552 25.84 53.7952 25C55.3632 24.132 57.1412 23.698 59.1292 23.698ZM84.8351 23.698C86.0111 23.698 86.9631 23.852 87.6911 24.16C88.4471 24.44 89.0351 24.832 89.4551 25.336C89.9031 25.868 90.2251 26.554 90.4211 27.394C90.6451 28.234 90.7571 29.368 90.7571 30.796V42.094C90.7571 43.27 90.9531 44.068 91.3451 44.488C91.7651 44.908 92.4651 45.118 93.4451 45.118V46C92.9131 45.972 92.1151 45.944 91.0511 45.916C89.9871 45.86 88.9371 45.832 87.9011 45.832C86.8371 45.832 85.7871 45.86 84.7511 45.916C83.7431 45.944 82.9731 45.972 82.4411 46V45.118C83.2811 45.118 83.8691 44.908 84.2051 44.488C84.5411 44.068 84.7091 43.27 84.7091 42.094V29.032C84.7091 28.332 84.6391 27.73 84.4991 27.226C84.3591 26.694 84.1071 26.288 83.7431 26.008C83.3791 25.7 82.8331 25.546 82.1051 25.546C81.3491 25.546 80.6491 25.756 80.0051 26.176C79.3891 26.596 78.8851 27.184 78.4931 27.94C78.1291 28.668 77.9471 29.494 77.9471 30.418V42.094C77.9471 43.27 78.1151 44.068 78.4511 44.488C78.8151 44.908 79.4031 45.118 80.2151 45.118V46C79.7111 45.972 78.9691 45.944 77.9891 45.916C77.0371 45.86 76.0431 45.832 75.0071 45.832C73.9431 45.832 72.8511 45.86 71.7311 45.916C70.6111 45.944 69.7711 45.972 69.2111 46V45.118C70.1911 45.118 70.8771 44.908 71.2691 44.488C71.6891 44.068 71.8991 43.27 71.8991 42.094V28.864C71.8991 27.604 71.7031 26.68 71.3111 26.092C70.9471 25.476 70.2471 25.168 69.2111 25.168V24.286C70.1071 24.37 70.9751 24.412 71.8151 24.412C72.9911 24.412 74.0831 24.37 75.0911 24.286C76.1271 24.174 77.0791 24.02 77.9471 23.824V27.604C78.6471 26.176 79.5991 25.168 80.8031 24.58C82.0071 23.992 83.3511 23.698 84.8351 23.698ZM103.326 23.698C104.502 23.698 105.524 23.852 106.392 24.16C107.288 24.44 107.932 24.72 108.324 25C109.276 25.644 109.864 25.224 110.088 23.74H110.97C110.914 24.524 110.872 25.49 110.844 26.638C110.816 27.758 110.802 29.256 110.802 31.132H109.92C109.78 30.096 109.514 29.074 109.122 28.066C108.73 27.058 108.156 26.232 107.4 25.588C106.672 24.944 105.72 24.622 104.544 24.622C103.732 24.622 103.046 24.86 102.486 25.336C101.926 25.784 101.646 26.442 101.646 27.31C101.646 28.15 101.898 28.892 102.402 29.536C102.906 30.152 103.55 30.754 104.334 31.342C105.146 31.902 105.986 32.504 106.854 33.148C107.778 33.848 108.618 34.548 109.374 35.248C110.13 35.92 110.732 36.662 111.18 37.474C111.628 38.286 111.852 39.252 111.852 40.372C111.852 41.632 111.488 42.738 110.76 43.69C110.032 44.614 109.066 45.328 107.862 45.832C106.686 46.336 105.37 46.588 103.914 46.588C103.074 46.588 102.318 46.504 101.646 46.336C101.002 46.168 100.442 45.958 99.966 45.706C99.602 45.538 99.252 45.384 98.916 45.244C98.608 45.076 98.314 44.936 98.034 44.824C97.754 44.74 97.502 44.838 97.278 45.118C97.082 45.398 96.928 45.79 96.816 46.294H95.934C95.99 45.398 96.032 44.306 96.06 43.018C96.088 41.73 96.102 40.022 96.102 37.894H96.984C97.152 39.406 97.46 40.75 97.908 41.926C98.356 43.074 98.958 43.984 99.714 44.656C100.498 45.3 101.478 45.622 102.654 45.622C103.13 45.622 103.592 45.524 104.04 45.328C104.488 45.132 104.852 44.81 105.132 44.362C105.44 43.914 105.594 43.34 105.594 42.64C105.594 41.408 105.188 40.386 104.376 39.574C103.592 38.762 102.584 37.88 101.352 36.928C100.456 36.2 99.602 35.486 98.79 34.786C98.006 34.058 97.362 33.274 96.858 32.434C96.354 31.566 96.102 30.586 96.102 29.494C96.102 28.234 96.438 27.17 97.11 26.302C97.782 25.434 98.664 24.79 99.756 24.37C100.876 23.922 102.066 23.698 103.326 23.698ZM122.936 13.156V27.604C123.636 26.148 124.574 25.14 125.75 24.58C126.954 23.992 128.298 23.698 129.782 23.698C130.986 23.698 131.952 23.852 132.68 24.16C133.408 24.44 133.982 24.832 134.402 25.336C134.878 25.868 135.214 26.554 135.41 27.394C135.634 28.234 135.746 29.368 135.746 30.796V42.094C135.746 43.27 135.942 44.068 136.334 44.488C136.754 44.908 137.454 45.118 138.434 45.118V46C137.902 45.972 137.09 45.944 135.998 45.916C134.934 45.86 133.898 45.832 132.89 45.832C131.798 45.832 130.734 45.86 129.698 45.916C128.69 45.944 127.934 45.972 127.43 46V45.118C128.27 45.118 128.858 44.908 129.194 44.488C129.53 44.068 129.698 43.27 129.698 42.094V29.032C129.698 28.332 129.628 27.73 129.488 27.226C129.348 26.694 129.082 26.288 128.69 26.008C128.326 25.7 127.794 25.546 127.094 25.546C126.338 25.546 125.638 25.756 124.994 26.176C124.378 26.568 123.874 27.128 123.482 27.856C123.118 28.584 122.936 29.424 122.936 30.376V42.094C122.936 43.27 123.104 44.068 123.44 44.488C123.776 44.908 124.364 45.118 125.204 45.118V46C124.7 45.972 123.958 45.944 122.978 45.916C121.998 45.86 121.004 45.832 119.996 45.832C118.904 45.832 117.798 45.86 116.678 45.916C115.586 45.944 114.76 45.972 114.2 46V45.118C115.18 45.118 115.866 44.908 116.258 44.488C116.678 44.068 116.888 43.27 116.888 42.094V18.196C116.888 16.936 116.692 16.012 116.3 15.424C115.936 14.808 115.236 14.5 114.2 14.5V13.618C115.096 13.702 115.964 13.744 116.804 13.744C117.952 13.744 119.044 13.702 120.08 13.618C121.116 13.506 122.068 13.352 122.936 13.156Z" fill="#080811"/>
<path d="M150.799 23.698C152.843 23.698 154.635 24.076 156.175 24.832C157.715 25.588 158.919 26.806 159.787 28.486C160.655 30.166 161.089 32.392 161.089 35.164C161.089 37.936 160.655 40.162 159.787 41.842C158.919 43.494 157.715 44.698 156.175 45.454C154.635 46.21 152.843 46.588 150.799 46.588C148.811 46.588 147.033 46.21 145.465 45.454C143.925 44.698 142.707 43.494 141.811 41.842C140.943 40.162 140.509 37.936 140.509 35.164C140.509 32.392 140.943 30.166 141.811 28.486C142.707 26.806 143.925 25.588 145.465 24.832C147.033 24.076 148.811 23.698 150.799 23.698ZM150.799 24.538C149.679 24.538 148.741 25.378 147.985 27.058C147.229 28.71 146.851 31.412 146.851 35.164C146.851 38.916 147.229 41.618 147.985 43.27C148.741 44.922 149.679 45.748 150.799 45.748C151.947 45.748 152.885 44.922 153.613 43.27C154.369 41.618 154.747 38.916 154.747 35.164C154.747 31.412 154.369 28.71 153.613 27.058C152.885 25.378 151.947 24.538 150.799 24.538ZM157.813 16.096V17.146H143.701V16.096H157.813Z" fill="#C9943A"/>
</svg>
